<svg version="1.1" id="Layer_1" xmlns="http://www.w3.org/2000/svg" xmlns:xlink="http://www.w3.org/1999/xlink" x="0px" y="0px"
	 width="100%" viewBox="0 0 654 293" enable-background="new 0 0 654 293" xml:space="preserve">
<path fill="#000000" opacity="1.000000" stroke="none" 
	d="
M442.000000,294.000000 
	C294.666656,294.000000 147.833328,294.000000 1.000000,294.000000 
	C1.000000,196.333328 1.000000,98.666664 1.000000,1.000000 
	C219.000000,1.000000 437.000000,1.000000 655.000000,1.000000 
	C655.000000,98.666664 655.000000,196.333328 655.000000,294.000000 
	C584.166687,294.000000 513.333313,294.000000 442.000000,294.000000 
M465.355896,156.961838 
	C451.087219,158.641174 436.832947,161.492661 422.545776,161.668396 
	C408.412781,161.842224 394.137848,160.007187 380.120911,157.806381 
	C360.181732,154.675705 341.323761,148.112045 324.868866,135.906876 
	C321.552551,133.447067 318.785461,130.167343 315.288788,128.053711 
	C312.081482,126.114998 308.271088,125.905602 305.360474,129.225098 
	C302.661194,132.303589 304.167969,135.167847 306.260925,137.700684 
	C307.597839,139.318573 309.249573,140.756348 310.980927,141.956299 
	C339.740906,161.889206 372.551270,168.737411 406.633698,170.846069 
	C417.194366,171.499451 427.870972,170.432907 438.487732,169.991425 
	C457.300476,169.209137 475.567413,165.406647 493.131714,158.768677 
	C508.100006,153.111816 522.521179,145.895248 533.371338,133.865677 
	C546.940613,118.821480 554.734802,100.629204 559.109131,80.879257 
	C560.949097,72.571838 563.554260,64.435478 565.738647,56.202019 
	C566.656189,52.743572 564.866882,51.149353 561.607544,51.065132 
	C557.278503,50.953270 552.925476,50.800373 548.622986,51.153954 
	C547.132874,51.276413 545.762817,52.858574 544.337891,53.773994 
	C545.261475,55.033829 545.915894,56.843517 547.158447,57.451904 
	C551.118225,59.390728 552.259644,62.854797 551.889404,66.548340 
	C550.713501,78.278671 548.407654,89.839325 542.748840,100.312531 
	C537.883789,109.316673 527.941833,109.903000 523.254272,100.863609 
	C518.758850,92.194786 515.922607,82.569611 513.168823,73.127998 
	C511.388794,67.024765 511.571259,60.891727 517.838318,56.326759 
	C520.513000,54.378536 518.960083,51.209713 515.414062,51.088638 
	C509.589142,50.889763 503.749664,50.907459 497.922424,51.063332 
	C493.993164,51.168446 492.584686,53.794689 495.492432,56.499031 
	C500.532471,61.186554 500.097504,67.201485 500.990692,72.962807 
	C502.751282,84.319183 505.553864,95.359543 511.268341,105.421463 
	C515.216003,112.372383 520.907898,116.713417 529.461304,116.041016 
	C530.819092,115.934273 532.215881,116.323097 533.780762,116.504372 
	C528.440613,128.052948 512.674438,139.731003 503.021423,143.718903 
	C490.991150,148.688934 478.487122,152.512283 465.355896,156.961838 
M109.457375,108.785370 
	C100.105232,81.904076 91.351868,54.779858 78.519936,29.267569 
	C75.707634,23.676174 72.261253,18.341595 68.585106,13.266708 
	C65.709999,9.297661 62.982281,9.493015 60.404171,13.358549 
	C58.021694,16.930756 55.539558,20.552265 53.899525,24.484938 
	C43.840588,48.605499 34.088219,72.853851 24.043217,96.980316 
	C21.613913,102.815109 18.549358,108.394066 15.619027,114.008263 
	C13.944022,117.217392 15.353231,119.853012 19.236021,119.951057 
	C24.398645,120.081421 29.586325,120.258362 34.723885,119.880379 
	C37.098164,119.705696 39.379242,118.264221 41.702576,117.397102 
	C40.333347,115.538078 39.164070,113.477997 37.546234,111.868942 
	C35.331440,109.666183 33.541321,107.770813 34.735512,104.153748 
	C36.544304,98.675110 37.908146,93.040810 39.268284,87.425964 
	C40.130054,83.868439 42.188107,82.855721 45.720554,82.930504 
	C55.547832,83.138542 65.382423,83.000557 75.214127,83.000137 
	C84.856812,82.999725 84.876450,82.992249 88.578316,92.128342 
	C89.633743,94.733078 90.709259,97.350288 91.475655,100.047012 
	C92.845932,104.868637 94.364372,109.710938 88.110474,112.782524 
	C86.961357,113.346909 86.020409,116.168251 86.427612,117.509285 
	C86.776123,118.657005 89.158386,119.770096 90.703987,119.863960 
	C95.685242,120.166504 100.711258,120.233467 105.688812,119.910423 
	C108.749001,119.711815 113.335564,119.593216 114.449387,117.752266 
	C116.725723,113.989861 111.900063,112.031021 109.457375,108.785370 
M371.225861,270.999603 
	C373.816193,270.475342 376.406525,269.951080 378.996887,269.426819 
	C379.110779,268.890839 379.224701,268.354858 379.338623,267.818909 
	C377.920105,266.396423 376.735291,264.509583 375.032227,263.652527 
	C371.916351,262.084473 370.901703,259.969482 370.931000,256.535553 
	C371.081604,238.870850 370.992188,221.204163 371.017670,203.538208 
	C371.019684,202.154373 371.259766,200.770889 371.497040,198.234451 
	C372.738678,200.136566 373.500183,200.960785 373.878815,201.933960 
	C380.673248,219.397949 387.360840,236.903946 394.270905,254.321793 
	C394.980316,256.109955 396.960358,257.394043 398.350830,258.912048 
	C399.805756,257.488068 401.838379,256.325134 402.619507,254.596634 
	C406.888000,245.151260 410.956879,235.611069 414.882843,226.016922 
	C418.244080,217.802780 421.320404,209.472061 424.522736,201.192917 
	C425.807343,203.048691 425.985229,204.624954 425.987091,206.201416 
	C426.007202,223.200745 425.969635,240.200211 426.028046,257.199371 
	C426.038208,260.161285 425.773865,262.491486 422.696808,264.257935 
	C419.692047,265.982880 420.361481,269.852509 423.741486,270.141968 
	C429.575745,270.641541 435.506897,270.233643 441.376099,269.866272 
	C442.291992,269.808929 443.780426,267.938965 443.758453,266.934418 
	C443.736389,265.926575 442.314697,264.362854 441.230194,264.071716 
	C437.561584,263.086853 436.920166,260.769714 436.939850,257.358582 
	C437.061188,236.360092 437.037201,215.360428 436.963684,194.361481 
	C436.952026,191.030289 437.497131,188.630783 441.314606,187.666290 
	C442.453918,187.378448 443.894012,184.963654 443.709900,183.748550 
	C443.546844,182.672302 441.371918,181.239868 439.993408,181.131500 
	C435.686859,180.792923 431.320221,180.793320 427.013214,181.128799 
	C425.610596,181.238037 423.606018,182.483414 423.092529,183.715744 
	C419.551697,192.213913 416.460449,200.898407 412.976837,209.421677 
	C408.922302,219.341797 404.614838,229.158524 400.171753,239.596603 
	C399.260101,238.156754 398.806030,237.644608 398.575928,237.046295 
	C392.379303,220.934799 386.123810,204.845123 380.064026,188.682129 
	C377.209015,181.067032 377.382721,181.001434 369.804718,181.000305 
	C366.971497,180.999893 364.087555,180.684097 361.324341,181.124451 
	C359.702209,181.382950 358.272186,182.846588 356.755737,183.768127 
	C357.815887,184.992569 358.664154,186.902008 359.977386,187.308228 
	C363.406403,188.368912 364.030212,190.619370 364.023041,193.709030 
	C363.974609,214.541458 364.124542,235.375809 363.836273,256.204376 
	C363.800720,258.774689 361.592255,261.334229 360.316895,263.861511 
	C359.434021,265.611084 358.424225,267.296600 356.809875,270.200073 
	C362.497803,270.536926 366.406708,270.768402 371.225861,270.999603 
M296.557800,65.105560 
	C294.962830,61.426323 297.027466,59.263256 299.580048,57.031273 
	C300.664246,56.083225 301.037109,54.321651 301.733276,52.929798 
	C300.353577,52.290997 298.997986,51.172142 297.589722,51.101330 
	C292.935577,50.867306 288.256256,50.877075 283.600220,51.090488 
	C282.147156,51.157093 280.737274,52.166214 279.307648,52.743881 
	C279.934601,54.167873 280.179291,56.086182 281.260712,56.922508 
	C284.416260,59.362858 285.522552,62.495705 284.938354,66.149063 
	C282.640594,80.518593 277.237091,93.661850 268.831268,106.439224 
	C267.694183,104.708549 266.672180,103.620735 266.180695,102.330803 
	C262.361481,92.306831 258.423431,82.318825 254.981628,72.163963 
	C253.024353,66.389168 252.312469,60.460339 258.322754,56.026985 
	C259.159546,55.409733 259.849670,53.504097 259.495026,52.665390 
	C259.135651,51.815540 257.408966,51.134060 256.258881,51.098495 
	C250.931503,50.933765 245.593994,50.919212 240.264786,51.046772 
	C235.956223,51.149899 234.598343,53.560905 237.573410,56.653366 
	C240.763229,59.969063 241.294205,63.838516 242.028976,67.869110 
	C245.287796,85.745186 250.836197,102.792244 260.624451,118.243881 
	C263.933685,123.467743 269.074280,123.573936 272.308563,118.230179 
	C276.574646,111.181671 280.341705,103.827698 284.225067,96.552605 
	C285.874451,93.462601 287.274567,90.239525 289.370422,85.859779 
	C291.612549,91.276787 293.030640,95.489853 295.044708,99.395561 
	C298.597717,106.285561 302.137512,113.239044 306.423126,119.672821 
	C308.902405,123.394753 313.438110,123.133484 315.586578,119.589554 
	C319.950623,112.391174 324.849243,105.291069 327.766754,97.491798 
	C332.786102,84.073700 336.508728,70.166916 340.659760,56.430237 
	C341.664581,53.105167 340.700775,50.857273 336.622192,50.993210 
	C333.293213,51.104160 329.935425,50.787663 326.634491,51.110825 
	C325.097382,51.261307 323.664703,52.478497 322.184692,53.212158 
	C322.968048,54.727089 323.367920,56.911343 324.611115,57.623596 
	C327.594696,59.332966 328.275787,61.701393 327.993744,64.726395 
	C326.642365,79.219971 321.161896,92.210999 313.483582,104.387268 
	C313.292572,104.690239 312.609222,104.682747 311.677490,104.964699 
	C305.073151,92.544876 298.653442,80.124290 296.557800,65.105560 
M373.521210,49.000488 
	C367.518250,50.006088 361.390503,50.554646 355.548462,52.149597 
	C350.030670,53.656017 347.400482,57.983837 348.781616,61.383575 
	C350.268616,65.043938 353.316376,65.380569 359.435577,62.211159 
	C364.667999,59.501049 369.925385,57.455418 376.036316,57.957794 
	C383.606995,58.580177 393.210052,65.751343 392.403625,72.489609 
	C386.350403,72.993736 380.235931,73.245140 374.199738,74.069481 
	C366.254852,75.154488 358.779938,77.534500 352.391968,82.818024 
	C341.305023,91.988129 341.870270,112.114716 354.198425,119.071709 
	C364.032776,124.621384 382.504669,122.543633 390.692871,114.816345 
	C392.052307,113.533409 393.501068,112.345062 395.675293,110.441833 
	C395.833954,113.280350 395.501312,115.085579 396.122681,116.459282 
	C396.878754,118.130775 398.278595,120.485191 399.681366,120.699127 
	C403.243378,121.242371 407.023468,121.123810 410.593170,120.530212 
	C412.425232,120.225571 413.993866,118.336906 415.681549,117.164085 
	C414.498688,115.676147 413.612762,113.622375 412.073059,112.814354 
	C408.525482,110.952583 407.963104,108.217102 407.922180,104.589859 
	C407.813568,94.963768 407.917145,85.268440 406.746948,75.746826 
	C406.069031,70.230736 404.067413,64.329216 400.946106,59.777424 
	C394.744629,50.733898 384.592560,49.441883 373.521210,49.000488 
M616.902161,68.777710 
	C617.218262,69.964867 617.534302,71.152031 617.882507,72.459831 
	C611.231201,73.007103 605.106201,73.256195 599.054993,74.060867 
	C585.537109,75.858444 570.132324,83.104729 569.560303,99.503639 
	C569.248413,108.445946 574.087891,118.454407 582.560181,120.571495 
	C595.098999,123.704720 607.248779,123.136879 617.265747,113.283577 
	C618.098389,112.464592 619.214661,111.934052 621.020203,110.715225 
	C621.020203,113.417664 620.590759,115.220871 621.135437,116.653778 
	C621.736816,118.235794 623.130432,120.554962 624.355530,120.669754 
	C628.263123,121.035873 632.287109,120.777435 636.193359,120.235527 
	C637.766907,120.017242 639.151794,118.438377 640.622498,117.478745 
	C639.543823,115.957947 638.791992,113.844002 637.321716,113.033859 
	C633.724060,111.051468 632.937012,108.282913 632.910034,104.430824 
	C632.842712,94.812866 632.650208,85.170845 631.871826,75.590172 
	C631.168701,66.935951 628.214539,58.938919 620.272888,54.230820 
	C611.699280,49.148113 602.116943,47.890953 592.422058,49.484676 
	C587.005371,50.375111 581.546875,52.100311 576.664307,54.556816 
	C574.965454,55.411510 574.940979,59.594162 574.151794,62.256893 
	C576.676636,62.710518 579.336609,63.878708 581.691589,63.433617 
	C584.520630,62.898914 587.043091,60.882145 589.780212,59.696079 
	C600.002686,55.266350 610.838196,58.701218 616.902161,68.777710 
M129.841614,64.249931 
	C131.370041,61.849117 132.991989,59.500988 134.386810,57.024902 
	C135.067764,55.816093 135.944473,54.164566 135.589996,53.090488 
	C135.274002,52.132938 133.403076,51.160233 132.186340,51.118069 
	C126.361893,50.916229 120.524284,50.944038 114.697083,51.101933 
	C113.560410,51.132736 111.829750,51.860023 111.498512,52.706478 
	C111.159729,53.572212 112.150169,55.003342 112.653931,56.144978 
	C114.089058,59.397266 116.075912,62.499596 116.942490,65.891670 
	C119.511856,75.949089 121.102074,86.283585 124.122467,96.190437 
	C126.592514,104.292198 130.514832,112.133476 139.521851,115.068321 
	C142.980423,116.195267 146.835449,116.105522 150.571487,116.577980 
	C146.483795,129.347778 134.338181,137.500473 121.834534,136.565552 
	C118.712196,136.332077 114.914627,136.392502 114.078735,140.858368 
	C113.345917,144.773544 115.532631,147.271439 120.266785,148.037933 
	C131.185089,149.805649 139.579300,144.385361 146.782776,137.512726 
	C161.582962,123.392303 169.695328,105.339951 174.990891,85.900215 
	C177.664780,76.084518 180.267120,66.244850 182.591080,56.343086 
	C182.941803,54.848721 181.688828,51.517200 181.016663,51.472794 
	C175.225067,51.090168 169.391647,51.152233 163.584122,51.398472 
	C162.690109,51.436378 161.864563,53.089142 160.899353,54.109215 
	C162.119904,55.409798 162.847916,56.719643 163.954559,57.275009 
	C169.638214,60.127331 169.320877,65.108902 168.778458,70.194321 
	C168.621567,71.665184 168.261337,73.115379 167.975159,74.571281 
	C166.089844,84.162933 164.182816,93.754395 158.534302,102.045578 
	C154.504593,107.960609 147.451202,108.809883 142.444183,103.775230 
	C140.492737,101.813004 138.648071,99.459511 137.600388,96.933517 
	C133.358780,86.706848 129.664673,76.289299 129.841614,64.249931 
M205.407211,49.778820 
	C195.420013,50.955933 188.002594,58.442944 187.036148,68.322197 
	C186.123230,77.654083 190.746155,84.520798 200.256363,87.941734 
	C206.778152,90.287712 213.565918,92.084404 219.760635,95.100510 
	C227.206284,98.725677 226.923569,106.937241 219.693451,111.089493 
	C213.388031,114.710693 204.226501,113.511871 198.940277,108.469795 
	C196.549088,106.189041 194.225220,103.710876 191.446701,102.018593 
	C190.133606,101.218826 187.303848,101.398361 186.108521,102.338524 
	C184.899292,103.289604 184.263840,105.801842 184.471802,107.495827 
	C184.692291,109.292198 185.950409,111.142403 187.187119,112.603706 
	C195.886292,122.882721 211.219009,124.197685 221.971832,120.301994 
	C230.858139,117.082527 237.207840,109.982414 236.051239,95.692596 
	C235.496201,88.834938 230.354431,82.853615 221.512939,80.027512 
	C216.007095,78.267609 210.399567,76.823685 204.905029,75.031441 
	C201.112671,73.794434 197.682617,71.742737 198.129883,67.067177 
	C198.557083,62.601414 201.176697,59.362953 205.563980,58.107170 
	C212.117004,56.231487 217.900192,57.978928 222.956924,62.441746 
	C224.810760,64.077866 226.627106,65.794434 228.662613,67.176796 
	C231.021973,68.779083 232.486725,67.912491 233.414764,65.189995 
	C235.411087,59.333576 232.481277,52.772808 225.788452,51.265728 
	C219.438400,49.835831 212.738144,49.961018 205.407211,49.778820 
M557.710083,270.942291 
	C562.470459,268.514526 562.416443,267.475647 558.779297,263.784027 
	C557.245911,262.227631 556.199097,259.532410 556.124207,257.314575 
	C555.826538,248.499008 556.265076,239.657593 555.934448,230.844376 
	C555.467346,218.393814 546.635986,209.487625 533.452148,212.045212 
	C529.058533,212.897537 524.858215,214.746262 520.270020,216.236801 
	C520.209412,215.687561 520.021729,214.766068 520.019226,213.844086 
	C519.994507,204.852051 520.072937,195.859177 519.978027,186.868057 
	C519.881775,177.747910 518.454834,176.826523 510.352936,180.270309 
	C509.449036,180.654541 508.436584,180.809662 507.574829,181.262161 
	C504.377167,182.941284 504.468231,185.352676 507.098633,187.712830 
	C508.545197,189.010727 509.860565,191.337280 509.876984,193.211929 
	C510.067383,215.024414 509.968719,236.839264 510.039337,258.653198 
	C510.047516,261.181519 509.696320,263.006989 507.038605,264.151825 
	C506.049500,264.577911 505.104218,266.498566 505.206573,267.642151 
	C505.294586,268.625854 506.840576,270.174622 507.847076,270.262085 
	C512.607300,270.675568 517.406677,270.808258 522.184631,270.703033 
	C523.119080,270.682465 524.660461,269.243652 524.774109,268.318085 
	C524.914307,267.176422 524.182007,265.461975 523.249817,264.742828 
	C520.589661,262.690613 519.862183,260.202240 519.938599,256.957642 
	C520.126892,248.969131 520.447693,240.939880 519.856750,232.990845 
	C519.393921,226.765701 521.815674,223.243393 527.346558,221.313202 
	C529.042419,220.721390 530.753967,220.055115 532.513794,219.786163 
	C540.212463,218.609589 545.634094,222.813431 545.919617,227.963318 
	C546.487793,238.208878 546.740356,248.478149 546.800049,258.739532 
	C546.809998,260.448730 545.210144,262.179565 544.312500,263.878448 
	C543.398804,265.607910 542.433777,267.310303 540.807983,270.267090 
	C547.370300,270.560120 552.116272,270.772003 557.710083,270.942291 
M450.006287,257.140533 
	C450.617432,263.458160 453.694946,267.941193 459.710602,270.280670 
	C469.967316,274.269470 478.885956,272.136047 486.510590,263.803162 
	C487.554047,270.522064 494.513977,273.387146 499.497314,269.500366 
	C500.258118,268.906921 500.106110,265.352844 499.448364,265.023926 
	C495.437836,263.018646 495.033264,259.566956 495.013336,255.851135 
	C494.972229,248.187393 495.604401,240.456955 494.774139,232.883911 
	C494.265533,228.244888 492.497467,223.107132 489.649811,219.487671 
	C482.699280,210.653275 472.812897,210.281830 462.755096,212.794617 
	C459.837280,213.523605 456.952881,215.207458 454.631500,217.146103 
	C453.518433,218.075592 453.753632,220.619476 453.378235,222.432220 
	C455.158447,222.645920 457.003693,223.248505 458.700714,222.964783 
	C460.424286,222.676605 462.010345,221.531845 463.641602,220.731583 
	C474.299255,215.503143 483.280853,219.937363 485.632324,232.001511 
	C481.644012,232.001511 477.714813,231.807175 473.810822,232.038101 
	C462.271851,232.720581 448.357483,241.312729 450.006287,257.140533 
M611.291931,259.673737 
	C611.194580,251.019684 611.130188,242.365051 610.974792,233.712051 
	C610.939636,231.751694 610.837769,229.731461 610.342834,227.850235 
	C606.779663,214.305313 592.728333,208.725586 578.646667,212.857941 
	C575.602295,213.751358 572.684082,215.596588 570.198975,217.609665 
	C569.243652,218.383545 568.963684,221.285873 569.667908,222.406647 
	C570.237427,223.313049 572.873352,223.499863 574.361145,223.113739 
	C576.553955,222.544647 578.525269,221.149246 580.618347,220.164108 
	C590.488464,215.518555 599.814941,220.656830 601.453918,231.796173 
	C599.790222,231.796173 598.150085,231.846649 596.513916,231.787979 
	C585.644653,231.398285 575.858154,233.832520 569.291199,243.299515 
	C562.896729,252.517746 565.000427,267.667267 577.823120,271.083588 
	C587.407532,273.637115 595.587402,271.679779 602.306152,263.880005 
	C603.684326,270.394135 609.199524,272.854279 614.948608,269.877502 
	C617.706543,268.449524 617.845459,266.724487 615.326172,264.638916 
	C613.924805,263.478699 612.939270,261.816101 611.291931,259.673737 
M439.400879,77.210831 
	C439.778137,76.117416 440.158447,75.025040 440.532196,73.930428 
	C444.455811,62.439617 445.982086,61.514355 457.416138,64.255615 
	C461.048950,65.126564 463.144897,63.516254 463.252472,60.252991 
	C463.389069,56.106323 463.016113,51.261856 458.550171,49.556519 
	C454.285522,47.928017 449.585571,48.627697 446.187958,52.366261 
	C442.915253,55.967342 439.879974,59.784206 436.345428,63.974487 
	C435.467743,61.153431 434.785614,58.657887 433.918030,56.228580 
	C431.207642,48.639221 427.560669,47.484913 420.901154,52.058411 
	C420.085266,52.618748 419.304535,53.250153 418.589661,53.934425 
	C414.907227,57.459305 415.116455,59.103340 419.239014,62.132439 
	C421.788818,64.005943 425.112915,65.060539 425.141113,69.389290 
	C425.211395,80.166435 425.610962,90.943916 426.033417,101.715187 
	C426.231384,106.762886 425.882416,111.282501 420.685425,114.074913 
	C419.631256,114.641312 419.012054,116.847557 419.067078,118.263832 
	C419.091095,118.882645 421.307068,119.882530 422.545868,119.910782 
	C429.535736,120.070183 436.535645,120.118065 443.521088,119.880028 
	C444.985474,119.830124 446.403595,118.422920 447.843048,117.641174 
	C446.756653,116.202866 445.899109,113.819046 444.543976,113.491051 
	C438.885834,112.121559 437.839752,108.172531 438.020660,103.349419 
	C438.337494,94.902527 438.764862,86.459778 439.400879,77.210831 
M486.000702,104.247765 
	C485.999969,88.601051 486.018219,72.954277 485.972534,57.307690 
	C485.967285,55.507744 486.098541,53.420506 485.264404,51.993916 
	C484.494202,50.676701 482.171753,49.001431 481.122467,49.335487 
	C476.916595,50.674526 472.709534,52.352551 468.941925,54.631107 
	C465.009644,57.009251 465.087372,59.188995 469.018921,61.477322 
	C472.415192,63.454105 473.123749,66.055626 473.066986,69.679672 
	C472.884521,81.328636 472.949554,92.982582 473.028229,104.633873 
	C473.053680,108.405571 473.269196,111.903297 468.557281,113.450607 
	C467.413605,113.826172 466.963470,116.313652 466.194397,117.830017 
	C467.683746,118.549759 469.151276,119.831985 470.666229,119.890686 
	C476.815826,120.128929 482.984558,120.120232 489.135620,119.902870 
	C490.690704,119.847923 492.206573,118.684624 493.740448,118.030624 
	C492.742157,116.477577 492.091705,114.165092 490.678528,113.517738 
	C486.855682,111.766579 485.601624,109.049934 486.000702,104.247765 
M626.000000,210.649536 
	C625.999756,226.277893 626.120117,241.908203 625.867249,257.532471 
	C625.829956,259.837250 624.480957,262.502350 622.934814,264.314880 
	C620.393494,267.294220 620.275635,269.590942 623.972229,270.254364 
	C628.438354,271.055908 633.176453,270.979492 637.714233,270.500397 
	C640.353271,270.221771 641.811401,267.098785 639.516296,265.416107 
	C634.469238,261.715790 635.163635,256.505829 635.098999,251.693604 
	C634.853394,233.408401 634.933899,215.117493 635.052673,196.829773 
	C635.076416,193.176361 633.821533,191.132217 630.171631,192.189011 
	C627.213135,193.045624 624.395630,194.625473 621.799438,196.319565 
	C621.201782,196.709564 621.338806,199.847336 621.861084,200.077225 
	C626.375122,202.064178 626.248474,205.809586 626.000000,210.649536 
M475.439636,36.033470 
	C478.612488,35.316975 482.424957,35.460243 484.810455,33.685467 
	C488.527466,30.920084 487.625458,24.738602 483.928711,22.091774 
	C480.308777,19.500027 472.635773,20.729786 470.464203,24.249762 
	C467.808258,28.554890 469.431885,33.069759 475.439636,36.033470 
z"/>
<path fill="#821917" opacity="1.000000" stroke="none" 
	d="
M465.771790,156.896301 
	C478.487122,152.512283 490.991150,148.688934 503.021423,143.718903 
	C512.674438,139.731003 528.440613,128.052948 533.780762,116.504372 
	C532.215881,116.323097 530.819092,115.934273 529.461304,116.041016 
	C520.907898,116.713417 515.216003,112.372383 511.268341,105.421463 
	C505.553864,95.359543 502.751282,84.319183 500.990692,72.962807 
	C500.097504,67.201485 500.532471,61.186554 495.492432,56.499031 
	C492.584686,53.794689 493.993164,51.168446 497.922424,51.063332 
	C503.749664,50.907459 509.589142,50.889763 515.414062,51.088638 
	C518.960083,51.209713 520.513000,54.378536 517.838318,56.326759 
	C511.571259,60.891727 511.388794,67.024765 513.168823,73.127998 
	C515.922607,82.569611 518.758850,92.194786 523.254272,100.863609 
	C527.941833,109.903000 537.883789,109.316673 542.748840,100.312531 
	C548.407654,89.839325 550.713501,78.278671 551.889404,66.548340 
	C552.259644,62.854797 551.118225,59.390728 547.158447,57.451904 
	C545.915894,56.843517 545.261475,55.033829 544.337891,53.773994 
	C545.762817,52.858574 547.132874,51.276413 548.622986,51.153954 
	C552.925476,50.800373 557.278503,50.953270 561.607544,51.065132 
	C564.866882,51.149353 566.656189,52.743572 565.738647,56.202019 
	C563.554260,64.435478 560.949097,72.571838 559.109131,80.879257 
	C554.734802,100.629204 546.940613,118.821480 533.371338,133.865677 
	C522.521179,145.895248 508.100006,153.111816 493.131714,158.768677 
	C475.567413,165.406647 457.300476,169.209137 438.487732,169.991425 
	C427.870972,170.432907 417.194366,171.499451 406.633698,170.846069 
	C372.551270,168.737411 339.740906,161.889206 310.980927,141.956299 
	C309.249573,140.756348 307.597839,139.318573 306.260925,137.700684 
	C304.167969,135.167847 302.661194,132.303589 305.360474,129.225098 
	C308.271088,125.905602 312.081482,126.114998 315.288788,128.053711 
	C318.785461,130.167343 321.552551,133.447067 324.868866,135.906876 
	C341.323761,148.112045 360.181732,154.675705 380.120911,157.806381 
	C394.137848,160.007187 408.412781,161.842224 422.545776,161.668396 
	C436.832947,161.492661 451.087219,158.641174 465.771790,156.896301 
z"/>
<path fill="#821917" opacity="1.000000" stroke="none" 
	d="
M109.699066,109.073883 
	C111.900063,112.031021 116.725723,113.989861 114.449387,117.752266 
	C113.335564,119.593216 108.749001,119.711815 105.688812,119.910423 
	C100.711258,120.233467 95.685242,120.166504 90.703987,119.863960 
	C89.158386,119.770096 86.776123,118.657005 86.427612,117.509285 
	C86.020409,116.168251 86.961357,113.346909 88.110474,112.782524 
	C94.364372,109.710938 92.845932,104.868637 91.475655,100.047012 
	C90.709259,97.350288 89.633743,94.733078 88.578316,92.128342 
	C84.876450,82.992249 84.856812,82.999725 75.214127,83.000137 
	C65.382423,83.000557 55.547832,83.138542 45.720554,82.930504 
	C42.188107,82.855721 40.130054,83.868439 39.268284,87.425964 
	C37.908146,93.040810 36.544304,98.675110 34.735512,104.153748 
	C33.541321,107.770813 35.331440,109.666183 37.546234,111.868942 
	C39.164070,113.477997 40.333347,115.538078 41.702576,117.397102 
	C39.379242,118.264221 37.098164,119.705696 34.723885,119.880379 
	C29.586325,120.258362 24.398645,120.081421 19.236021,119.951057 
	C15.353231,119.853012 13.944022,117.217392 15.619027,114.008263 
	C18.549358,108.394066 21.613913,102.815109 24.043217,96.980316 
	C34.088219,72.853851 43.840588,48.605499 53.899525,24.484938 
	C55.539558,20.552265 58.021694,16.930756 60.404171,13.358549 
	C62.982281,9.493015 65.709999,9.297661 68.585106,13.266708 
	C72.261253,18.341595 75.707634,23.676174 78.519936,29.267569 
	C91.351868,54.779858 100.105232,81.904076 109.699066,109.073883 
M79.453522,67.881386 
	C74.962639,57.242805 70.519356,46.583511 65.913162,35.995094 
	C65.407822,34.833439 63.950241,33.323280 62.964745,33.345158 
	C61.954716,33.367588 60.584923,34.895779 60.056732,36.072117 
	C56.272461,44.500072 52.610344,52.984314 49.021118,61.497768 
	C47.394131,65.356888 46.021767,69.323357 44.384624,73.634171 
	C57.159580,73.634171 69.013176,73.634171 81.389870,73.634171 
	C80.778107,71.610313 80.312195,70.068985 79.453522,67.881386 
z"/>
<path fill="#AD1E23" opacity="1.000000" stroke="none" 
	d="
M370.770752,270.999756 
	C366.406708,270.768402 362.497803,270.536926 356.809875,270.200073 
	C358.424225,267.296600 359.434021,265.611084 360.316895,263.861511 
	C361.592255,261.334229 363.800720,258.774689 363.836273,256.204376 
	C364.124542,235.375809 363.974609,214.541458 364.023041,193.709030 
	C364.030212,190.619370 363.406403,188.368912 359.977386,187.308228 
	C358.664154,186.902008 357.815887,184.992569 356.755737,183.768127 
	C358.272186,182.846588 359.702209,181.382950 361.324341,181.124451 
	C364.087555,180.684097 366.971497,180.999893 369.804718,181.000305 
	C377.382721,181.001434 377.209015,181.067032 380.064026,188.682129 
	C386.123810,204.845123 392.379303,220.934799 398.575928,237.046295 
	C398.806030,237.644608 399.260101,238.156754 400.171753,239.596603 
	C404.614838,229.158524 408.922302,219.341797 412.976837,209.421677 
	C416.460449,200.898407 419.551697,192.213913 423.092529,183.715744 
	C423.606018,182.483414 425.610596,181.238037 427.013214,181.128799 
	C431.320221,180.793320 435.686859,180.792923 439.993408,181.131500 
	C441.371918,181.239868 443.546844,182.672302 443.709900,183.748550 
	C443.894012,184.963654 442.453918,187.378448 441.314606,187.666290 
	C437.497131,188.630783 436.952026,191.030289 436.963684,194.361481 
	C437.037201,215.360428 437.061188,236.360092 436.939850,257.358582 
	C436.920166,260.769714 437.561584,263.086853 441.230194,264.071716 
	C442.314697,264.362854 443.736389,265.926575 443.758453,266.934418 
	C443.780426,267.938965 442.291992,269.808929 441.376099,269.866272 
	C435.506897,270.233643 429.575745,270.641541 423.741486,270.141968 
	C420.361481,269.852509 419.692047,265.982880 422.696808,264.257935 
	C425.773865,262.491486 426.038208,260.161285 426.028046,257.199371 
	C425.969635,240.200211 426.007202,223.200745 425.987091,206.201416 
	C425.985229,204.624954 425.807343,203.048691 424.522736,201.192917 
	C421.320404,209.472061 418.244080,217.802780 414.882843,226.016922 
	C410.956879,235.611069 406.888000,245.151260 402.619507,254.596634 
	C401.838379,256.325134 399.805756,257.488068 398.350830,258.912048 
	C396.960358,257.394043 394.980316,256.109955 394.270905,254.321793 
	C387.360840,236.903946 380.673248,219.397949 373.878815,201.933960 
	C373.500183,200.960785 372.738678,200.136566 371.497040,198.234451 
	C371.259766,200.770889 371.019684,202.154373 371.017670,203.538208 
	C370.992188,221.204163 371.081604,238.870850 370.931000,256.535553 
	C370.901703,259.969482 371.916351,262.084473 375.032227,263.652527 
	C376.735291,264.509583 377.920105,266.396423 379.338623,267.818909 
	C379.224701,268.354858 379.110779,268.890839 378.996887,269.426819 
	C376.406525,269.951080 373.816193,270.475342 370.770752,270.999756 
z"/>
<path fill="#821917" opacity="1.000000" stroke="none" 
	d="
M296.697510,65.498367 
	C298.653442,80.124290 305.073151,92.544876 311.677490,104.964699 
	C312.609222,104.682747 313.292572,104.690239 313.483582,104.387268 
	C321.161896,92.210999 326.642365,79.219971 327.993744,64.726395 
	C328.275787,61.701393 327.594696,59.332966 324.611115,57.623596 
	C323.367920,56.911343 322.968048,54.727089 322.184692,53.212158 
	C323.664703,52.478497 325.097382,51.261307 326.634491,51.110825 
	C329.935425,50.787663 333.293213,51.104160 336.622192,50.993210 
	C340.700775,50.857273 341.664581,53.105167 340.659760,56.430237 
	C336.508728,70.166916 332.786102,84.073700 327.766754,97.491798 
	C324.849243,105.291069 319.950623,112.391174 315.586578,119.589554 
	C313.438110,123.133484 308.902405,123.394753 306.423126,119.672821 
	C302.137512,113.239044 298.597717,106.285561 295.044708,99.395561 
	C293.030640,95.489853 291.612549,91.276787 289.370422,85.859779 
	C287.274567,90.239525 285.874451,93.462601 284.225067,96.552605 
	C280.341705,103.827698 276.574646,111.181671 272.308563,118.230179 
	C269.074280,123.573936 263.933685,123.467743 260.624451,118.243881 
	C250.836197,102.792244 245.287796,85.745186 242.028976,67.869110 
	C241.294205,63.838516 240.763229,59.969063 237.573410,56.653366 
	C234.598343,53.560905 235.956223,51.149899 240.264786,51.046772 
	C245.593994,50.919212 250.931503,50.933765 256.258881,51.098495 
	C257.408966,51.134060 259.135651,51.815540 259.495026,52.665390 
	C259.849670,53.504097 259.159546,55.409733 258.322754,56.026985 
	C252.312469,60.460339 253.024353,66.389168 254.981628,72.163963 
	C258.423431,82.318825 262.361481,92.306831 266.180695,102.330803 
	C266.672180,103.620735 267.694183,104.708549 268.831268,106.439224 
	C277.237091,93.661850 282.640594,80.518593 284.938354,66.149063 
	C285.522552,62.495705 284.416260,59.362858 281.260712,56.922508 
	C280.179291,56.086182 279.934601,54.167873 279.307648,52.743881 
	C280.737274,52.166214 282.147156,51.157093 283.600220,51.090488 
	C288.256256,50.877075 292.935577,50.867306 297.589722,51.101330 
	C298.997986,51.172142 300.353577,52.290997 301.733276,52.929802 
	C301.037109,54.321651 300.664246,56.083225 299.580048,57.031273 
	C297.027466,59.263256 294.962830,61.426323 296.697510,65.498367 
z"/>
<path fill="#821917" opacity="1.000000" stroke="none" 
	d="
M373.989532,49.000481 
	C384.592560,49.441883 394.744629,50.733898 400.946106,59.777424 
	C404.067413,64.329216 406.069031,70.230736 406.746948,75.746826 
	C407.917145,85.268440 407.813568,94.963768 407.922180,104.589859 
	C407.963104,108.217102 408.525482,110.952583 412.073059,112.814354 
	C413.612762,113.622375 414.498688,115.676147 415.681549,117.164093 
	C413.993866,118.336906 412.425232,120.225571 410.593170,120.530212 
	C407.023468,121.123810 403.243378,121.242371 399.681366,120.699127 
	C398.278595,120.485191 396.878754,118.130775 396.122681,116.459282 
	C395.501312,115.085579 395.833954,113.280350 395.675293,110.441833 
	C393.501068,112.345062 392.052307,113.533409 390.692871,114.816345 
	C382.504669,122.543633 364.032776,124.621384 354.198425,119.071709 
	C341.870270,112.114716 341.305023,91.988129 352.391968,82.818024 
	C358.779938,77.534500 366.254852,75.154488 374.199738,74.069481 
	C380.235931,73.245140 386.350403,72.993736 392.403625,72.489609 
	C393.210052,65.751343 383.606995,58.580177 376.036316,57.957794 
	C369.925385,57.455418 364.667999,59.501049 359.435577,62.211159 
	C353.316376,65.380569 350.268616,65.043938 348.781616,61.383575 
	C347.400482,57.983837 350.030670,53.656017 355.548462,52.149597 
	C361.390503,50.554646 367.518250,50.006088 373.989532,49.000481 
M364.185760,110.548981 
	C372.565552,114.363686 382.808258,112.533501 389.340942,106.180450 
	C396.156006,99.552811 395.038452,91.098282 394.705261,82.874313 
	C394.678894,82.223473 392.699890,81.011421 391.777008,81.138626 
	C384.460876,82.147026 376.763428,82.304924 369.981110,84.850365 
	C357.858917,89.399925 355.204071,101.733261 364.185760,110.548981 
z"/>
<path fill="#821917" opacity="1.000000" stroke="none" 
	d="
M616.730713,68.442108 
	C610.838196,58.701218 600.002686,55.266350 589.780212,59.696079 
	C587.043091,60.882145 584.520630,62.898914 581.691589,63.433617 
	C579.336609,63.878708 576.676636,62.710518 574.151733,62.256889 
	C574.940979,59.594162 574.965454,55.411510 576.664307,54.556816 
	C581.546875,52.100311 587.005371,50.375111 592.422058,49.484676 
	C602.116943,47.890953 611.699280,49.148113 620.272888,54.230820 
	C628.214539,58.938919 631.168701,66.935951 631.871826,75.590172 
	C632.650208,85.170845 632.842712,94.812866 632.910034,104.430824 
	C632.937012,108.282913 633.724060,111.051468 637.321716,113.033859 
	C638.791992,113.844002 639.543823,115.957947 640.622498,117.478745 
	C639.151794,118.438377 637.766907,120.017242 636.193359,120.235527 
	C632.287109,120.777435 628.263123,121.035873 624.355530,120.669754 
	C623.130432,120.554962 621.736816,118.235794 621.135437,116.653778 
	C620.590759,115.220871 621.020203,113.417664 621.020203,110.715225 
	C619.214661,111.934052 618.098389,112.464592 617.265747,113.283577 
	C607.248779,123.136879 595.098999,123.704720 582.560181,120.571495 
	C574.087891,118.454407 569.248413,108.445946 569.560303,99.503639 
	C570.132324,83.104729 585.537109,75.858444 599.054993,74.060867 
	C605.106201,73.256195 611.231201,73.007103 617.882507,72.459831 
	C617.534302,71.152031 617.218262,69.964867 616.730713,68.442108 
M600.857056,112.572769 
	C604.924683,110.858269 609.490662,109.826370 612.960571,107.293182 
	C621.254883,101.237946 620.121094,91.937813 619.717651,83.185585 
	C619.681824,82.408264 617.397461,81.228851 616.073303,81.099892 
	C608.318298,80.344673 600.923706,82.019730 593.872192,85.172226 
	C586.540894,88.449799 582.429138,96.180382 584.038391,103.315788 
	C585.452148,109.584259 591.529236,113.198608 600.857056,112.572769 
z"/>
<path fill="#821917" opacity="1.000000" stroke="none" 
	d="
M129.696320,64.624969 
	C129.664673,76.289299 133.358780,86.706848 137.600388,96.933517 
	C138.648071,99.459511 140.492737,101.813004 142.444183,103.775230 
	C147.451202,108.809883 154.504593,107.960609 158.534302,102.045578 
	C164.182816,93.754395 166.089844,84.162933 167.975159,74.571281 
	C168.261337,73.115379 168.621567,71.665184 168.778458,70.194321 
	C169.320877,65.108902 169.638214,60.127331 163.954559,57.275009 
	C162.847916,56.719643 162.119904,55.409798 160.899353,54.109215 
	C161.864563,53.089142 162.690109,51.436378 163.584122,51.398472 
	C169.391647,51.152233 175.225067,51.090168 181.016663,51.472794 
	C181.688828,51.517200 182.941803,54.848721 182.591080,56.343086 
	C180.267120,66.244850 177.664780,76.084518 174.990891,85.900215 
	C169.695328,105.339951 161.582962,123.392303 146.782776,137.512726 
	C139.579300,144.385361 131.185089,149.805649 120.266785,148.037933 
	C115.532631,147.271439 113.345917,144.773544 114.078735,140.858368 
	C114.914627,136.392502 118.712196,136.332077 121.834534,136.565552 
	C134.338181,137.500473 146.483795,129.347778 150.571487,116.577980 
	C146.835449,116.105522 142.980423,116.195267 139.521851,115.068321 
	C130.514832,112.133476 126.592514,104.292198 124.122467,96.190437 
	C121.102074,86.283585 119.511856,75.949089 116.942490,65.891670 
	C116.075912,62.499596 114.089058,59.397266 112.653931,56.144978 
	C112.150169,55.003342 111.159729,53.572212 111.498512,52.706478 
	C111.829750,51.860023 113.560410,51.132736 114.697083,51.101933 
	C120.524284,50.944038 126.361893,50.916229 132.186340,51.118069 
	C133.403076,51.160233 135.274002,52.132938 135.589996,53.090488 
	C135.944473,54.164566 135.067764,55.816093 134.386810,57.024902 
	C132.991989,59.500988 131.370041,61.849117 129.696320,64.624969 
z"/>
<path fill="#821917" opacity="1.000000" stroke="none" 
	d="
M205.799561,49.590591 
	C212.738144,49.961018 219.438400,49.835831 225.788452,51.265728 
	C232.481277,52.772808 235.411087,59.333576 233.414764,65.189995 
	C232.486725,67.912491 231.021973,68.779083 228.662613,67.176796 
	C226.627106,65.794434 224.810760,64.077866 222.956924,62.441746 
	C217.900192,57.978928 212.117004,56.231487 205.563980,58.107170 
	C201.176697,59.362953 198.557083,62.601414 198.129883,67.067177 
	C197.682617,71.742737 201.112671,73.794434 204.905029,75.031441 
	C210.399567,76.823685 216.007095,78.267609 221.512939,80.027512 
	C230.354431,82.853615 235.496201,88.834938 236.051239,95.692596 
	C237.207840,109.982414 230.858139,117.082527 221.971832,120.301994 
	C211.219009,124.197685 195.886292,122.882721 187.187119,112.603706 
	C185.950409,111.142403 184.692291,109.292198 184.471802,107.495827 
	C184.263840,105.801842 184.899292,103.289604 186.108521,102.338524 
	C187.303848,101.398361 190.133606,101.218826 191.446701,102.018593 
	C194.225220,103.710876 196.549088,106.189041 198.940277,108.469795 
	C204.226501,113.511871 213.388031,114.710693 219.693451,111.089493 
	C226.923569,106.937241 227.206284,98.725677 219.760635,95.100510 
	C213.565918,92.084404 206.778152,90.287712 200.256363,87.941734 
	C190.746155,84.520798 186.123230,77.654083 187.036148,68.322197 
	C188.002594,58.442944 195.420013,50.955933 205.799561,49.590591 
z"/>
<path fill="#AD1E23" opacity="1.000000" stroke="none" 
	d="
M557.286133,270.963104 
	C552.116272,270.772003 547.370300,270.560120 540.807983,270.267090 
	C542.433777,267.310303 543.398804,265.607910 544.312500,263.878448 
	C545.210144,262.179565 546.809998,260.448730 546.800049,258.739532 
	C546.740356,248.478149 546.487793,238.208878 545.919617,227.963318 
	C545.634094,222.813431 540.212463,218.609589 532.513794,219.786163 
	C530.753967,220.055115 529.042419,220.721390 527.346558,221.313202 
	C521.815674,223.243393 519.393921,226.765701 519.856750,232.990845 
	C520.447693,240.939880 520.126892,248.969131 519.938599,256.957642 
	C519.862183,260.202240 520.589661,262.690613 523.249817,264.742828 
	C524.182007,265.461975 524.914307,267.176422 524.774109,268.318085 
	C524.660461,269.243652 523.119080,270.682465 522.184631,270.703033 
	C517.406677,270.808258 512.607300,270.675568 507.847076,270.262085 
	C506.840576,270.174622 505.294586,268.625854 505.206573,267.642151 
	C505.104218,266.498566 506.049500,264.577911 507.038605,264.151825 
	C509.696320,263.006989 510.047516,261.181519 510.039337,258.653198 
	C509.968719,236.839264 510.067383,215.024414 509.876984,193.211929 
	C509.860565,191.337280 508.545197,189.010727 507.098633,187.712830 
	C504.468231,185.352676 504.377167,182.941284 507.574829,181.262161 
	C508.436584,180.809662 509.449036,180.654541 510.352936,180.270309 
	C518.454834,176.826523 519.881775,177.747910 519.978027,186.868057 
	C520.072937,195.859177 519.994507,204.852051 520.019226,213.844086 
	C520.021729,214.766068 520.209412,215.687561 520.270020,216.236801 
	C524.858215,214.746262 529.058533,212.897537 533.452148,212.045212 
	C546.635986,209.487625 555.467346,218.393814 555.934448,230.844376 
	C556.265076,239.657593 555.826538,248.499008 556.124207,257.314575 
	C556.199097,259.532410 557.245911,262.227631 558.779297,263.784027 
	C562.416443,267.475647 562.470459,268.514526 557.286133,270.963104 
z"/>
<path fill="#AD1E23" opacity="1.000000" stroke="none" 
	d="
M450.004028,256.701050 
	C448.357483,241.312729 462.271851,232.720581 473.810822,232.038101 
	C477.714813,231.807175 481.644012,232.001511 485.632324,232.001511 
	C483.280853,219.937363 474.299255,215.503143 463.641602,220.731583 
	C462.010345,221.531845 460.424286,222.676605 458.700714,222.964783 
	C457.003693,223.248505 455.158447,222.645920 453.378235,222.432220 
	C453.753632,220.619476 453.518433,218.075592 454.631500,217.146103 
	C456.952881,215.207458 459.837280,213.523605 462.755096,212.794617 
	C472.812897,210.281830 482.699280,210.653275 489.649811,219.487671 
	C492.497467,223.107132 494.265533,228.244888 494.774139,232.883911 
	C495.604401,240.456955 494.972229,248.187393 495.013336,255.851135 
	C495.033264,259.566956 495.437836,263.018646 499.448364,265.023926 
	C500.106110,265.352844 500.258118,268.906921 499.497314,269.500366 
	C494.513977,273.387146 487.554047,270.522064 486.510590,263.803162 
	C478.885956,272.136047 469.967316,274.269470 459.710602,270.280670 
	C453.694946,267.941193 450.617432,263.458160 450.004028,256.701050 
M466.646301,241.907028 
	C465.112457,243.434296 462.780426,244.714081 462.213898,246.541275 
	C461.095886,250.147293 459.901062,254.321838 460.763794,257.751740 
	C461.390991,260.245270 465.011353,263.142029 467.752502,263.727509 
	C475.466156,265.375244 483.568726,261.987732 484.988647,253.138245 
	C485.758698,248.338943 485.892059,243.437485 486.303741,238.684479 
	C478.878601,236.803177 473.061157,239.225464 466.646301,241.907028 
z"/>
<path fill="#AD1E23" opacity="1.000000" stroke="none" 
	d="
M611.529114,260.026825 
	C612.939270,261.816101 613.924805,263.478699 615.326172,264.638916 
	C617.845459,266.724487 617.706543,268.449524 614.948608,269.877502 
	C609.199524,272.854279 603.684326,270.394135 602.306152,263.880005 
	C595.587402,271.679779 587.407532,273.637115 577.823120,271.083588 
	C565.000427,267.667267 562.896729,252.517746 569.291199,243.299515 
	C575.858154,233.832520 585.644653,231.398285 596.513916,231.787979 
	C598.150085,231.846649 599.790222,231.796173 601.453918,231.796173 
	C599.814941,220.656830 590.488464,215.518555 580.618347,220.164108 
	C578.525269,221.149246 576.553955,222.544647 574.361145,223.113739 
	C572.873352,223.499863 570.237427,223.313049 569.667908,222.406647 
	C568.963684,221.285873 569.243652,218.383545 570.198975,217.609665 
	C572.684082,215.596588 575.602295,213.751358 578.646667,212.857941 
	C592.728333,208.725586 606.779663,214.305313 610.342834,227.850235 
	C610.837769,229.731461 610.939636,231.751694 610.974792,233.712051 
	C611.130188,242.365051 611.194580,251.019684 611.529114,260.026825 
M595.873901,261.553009 
	C603.773621,255.261978 601.870667,246.690994 601.799255,238.430939 
	C594.623840,237.114777 588.551941,238.763962 582.867004,242.076767 
	C577.681641,245.098404 574.712708,251.397171 576.125000,256.808868 
	C577.412109,261.740967 581.446594,264.051727 586.019592,264.284973 
	C589.037476,264.438873 592.148254,262.770569 595.873901,261.553009 
z"/>
<path fill="#821917" opacity="1.000000" stroke="none" 
	d="
M439.273376,77.613068 
	C438.764862,86.459778 438.337494,94.902527 438.020660,103.349419 
	C437.839752,108.172531 438.885834,112.121559 444.543976,113.491051 
	C445.899109,113.819046 446.756653,116.202866 447.843048,117.641174 
	C446.403595,118.422920 444.985474,119.830124 443.521088,119.880028 
	C436.535645,120.118065 429.535736,120.070183 422.545868,119.910782 
	C421.307068,119.882530 419.091095,118.882645 419.067078,118.263832 
	C419.012054,116.847557 419.631256,114.641312 420.685425,114.074913 
	C425.882416,111.282501 426.231384,106.762886 426.033417,101.715187 
	C425.610962,90.943916 425.211395,80.166435 425.141113,69.389290 
	C425.112915,65.060539 421.788818,64.005943 419.239014,62.132439 
	C415.116455,59.103340 414.907227,57.459305 418.589661,53.934425 
	C419.304535,53.250153 420.085266,52.618748 420.901154,52.058411 
	C427.560669,47.484913 431.207642,48.639221 433.918030,56.228580 
	C434.785614,58.657887 435.467743,61.153431 436.345428,63.974487 
	C439.879974,59.784206 442.915253,55.967342 446.187958,52.366261 
	C449.585571,48.627697 454.285522,47.928017 458.550171,49.556519 
	C463.016113,51.261856 463.389069,56.106323 463.252472,60.252991 
	C463.144897,63.516254 461.048950,65.126564 457.416138,64.255615 
	C445.982086,61.514355 444.455811,62.439617 440.532196,73.930428 
	C440.158447,75.025040 439.778137,76.117416 439.273376,77.613068 
z"/>
<path fill="#821917" opacity="1.000000" stroke="none" 
	d="
M486.001373,104.708893 
	C485.601624,109.049934 486.855682,111.766579 490.678528,113.517738 
	C492.091705,114.165092 492.742157,116.477577 493.740448,118.030632 
	C492.206573,118.684624 490.690704,119.847923 489.135620,119.902870 
	C482.984558,120.120232 476.815826,120.128929 470.666229,119.890686 
	C469.151276,119.831985 467.683746,118.549759 466.194397,117.830017 
	C466.963470,116.313652 467.413605,113.826172 468.557281,113.450607 
	C473.269196,111.903297 473.053680,108.405571 473.028229,104.633873 
	C472.949554,92.982582 472.884521,81.328636 473.066986,69.679672 
	C473.123749,66.055626 472.415192,63.454105 469.018921,61.477322 
	C465.087372,59.188995 465.009644,57.009251 468.941925,54.631107 
	C472.709534,52.352551 476.916595,50.674526 481.122467,49.335487 
	C482.171753,49.001431 484.494202,50.676701 485.264404,51.993916 
	C486.098541,53.420506 485.967285,55.507744 485.972534,57.307690 
	C486.018219,72.954277 485.999969,88.601051 486.001373,104.708893 
z"/>
<path fill="#AD1E23" opacity="1.000000" stroke="none" 
	d="
M626.000000,210.174393 
	C626.248474,205.809586 626.375122,202.064178 621.861084,200.077225 
	C621.338806,199.847336 621.201782,196.709564 621.799438,196.319565 
	C624.395630,194.625473 627.213135,193.045624 630.171631,192.189011 
	C633.821533,191.132217 635.076416,193.176361 635.052673,196.829773 
	C634.933899,215.117493 634.853394,233.408401 635.098999,251.693604 
	C635.163635,256.505829 634.469238,261.715790 639.516296,265.416107 
	C641.811401,267.098785 640.353271,270.221771 637.714233,270.500397 
	C633.176453,270.979492 628.438354,271.055908 623.972229,270.254364 
	C620.275635,269.590942 620.393494,267.294220 622.934814,264.314880 
	C624.480957,262.502350 625.829956,259.837250 625.867249,257.532471 
	C626.120117,241.908203 625.999756,226.277893 626.000000,210.174393 
z"/>
<path fill="#821917" opacity="1.000000" stroke="none" 
	d="
M475.056885,35.994987 
	C469.431885,33.069759 467.808258,28.554890 470.464203,24.249762 
	C472.635773,20.729786 480.308777,19.500027 483.928711,22.091774 
	C487.625458,24.738602 488.527466,30.920084 484.810455,33.685467 
	C482.424957,35.460243 478.612488,35.316975 475.056885,35.994987 
M475.541443,31.497276 
	C476.505615,31.500566 477.715668,31.873726 478.382782,31.430195 
	C479.776398,30.503685 481.013519,29.240076 481.993958,27.883013 
	C482.180481,27.624872 480.778961,25.531054 480.293915,25.598852 
	C478.491333,25.850796 476.530609,26.336235 475.117401,27.389147 
	C474.483307,27.861570 475.002625,29.882061 475.541443,31.497276 
z"/>
<path fill="#000000" opacity="1.000000" stroke="none" 
	d="
M79.649902,68.204514 
	C80.312195,70.068985 80.778107,71.610313 81.389870,73.634171 
	C69.013176,73.634171 57.159580,73.634171 44.384624,73.634171 
	C46.021767,69.323357 47.394131,65.356888 49.021118,61.497768 
	C52.610344,52.984314 56.272461,44.500072 60.056732,36.072117 
	C60.584923,34.895779 61.954716,33.367588 62.964745,33.345158 
	C63.950241,33.323280 65.407822,34.833439 65.913162,35.995094 
	C70.519356,46.583511 74.962639,57.242805 79.649902,68.204514 
z"/>
<path fill="#000000" opacity="1.000000" stroke="none" 
	d="
M363.900024,110.299881 
	C355.204071,101.733261 357.858917,89.399925 369.981110,84.850365 
	C376.763428,82.304924 384.460876,82.147026 391.777008,81.138626 
	C392.699890,81.011421 394.678894,82.223473 394.705261,82.874313 
	C395.038452,91.098282 396.156006,99.552811 389.340942,106.180450 
	C382.808258,112.533501 372.565552,114.363686 363.900024,110.299881 
z"/>
<path fill="#000000" opacity="1.000000" stroke="none" 
	d="
M600.456604,112.707504 
	C591.529236,113.198608 585.452148,109.584259 584.038391,103.315788 
	C582.429138,96.180382 586.540894,88.449799 593.872192,85.172226 
	C600.923706,82.019730 608.318298,80.344673 616.073303,81.099892 
	C617.397461,81.228851 619.681824,82.408264 619.717651,83.185585 
	C620.121094,91.937813 621.254883,101.237946 612.960571,107.293182 
	C609.490662,109.826370 604.924683,110.858269 600.456604,112.707504 
z"/>
<path fill="#000000" opacity="1.000000" stroke="none" 
	d="
M466.925079,241.651443 
	C473.061157,239.225464 478.878601,236.803177 486.303741,238.684479 
	C485.892059,243.437485 485.758698,248.338943 484.988647,253.138245 
	C483.568726,261.987732 475.466156,265.375244 467.752502,263.727509 
	C465.011353,263.142029 461.390991,260.245270 460.763794,257.751740 
	C459.901062,254.321838 461.095886,250.147293 462.213898,246.541275 
	C462.780426,244.714081 465.112457,243.434296 466.925079,241.651443 
z"/>
<path fill="#000000" opacity="1.000000" stroke="none" 
	d="
M595.545654,261.735596 
	C592.148254,262.770569 589.037476,264.438873 586.019592,264.284973 
	C581.446594,264.051727 577.412109,261.740967 576.125000,256.808868 
	C574.712708,251.397171 577.681641,245.098404 582.867004,242.076767 
	C588.551941,238.763962 594.623840,237.114777 601.799255,238.430939 
	C601.870667,246.690994 603.773621,255.261978 595.545654,261.735596 
z"/>
<path fill="#821917" opacity="1.000000" stroke="none" 
	d="
M475.269989,31.348675 
	C475.002625,29.882061 474.483307,27.861570 475.117401,27.389147 
	C476.530609,26.336235 478.491333,25.850796 480.293915,25.598852 
	C480.778961,25.531054 482.180481,27.624872 481.993958,27.883013 
	C481.013519,29.240076 479.776398,30.503685 478.382782,31.430195 
	C477.715668,31.873726 476.505615,31.500566 475.269989,31.348675 
z"/>
</svg>